<svg xmlns="http://www.w3.org/2000/svg" viewBox="0 0 48 48" id="favorite"><path fill="#fdbd40" d="m24.37 3.86 6.32 12.82a.4.4 0 0 0 .31.22L45.13 19a.41.41 0 0 1 .23.7l-10.23 10a.4.4 0 0 0-.13.3l2.42 14.08a.41.41 0 0 1-.59.43l-12.64-6.67a.42.42 0 0 0-.38 0l-12.65 6.65a.41.41 0 0 1-.59-.43L13 30a.4.4 0 0 0-.12-.36l-10.23-10a.41.41 0 0 1 .23-.7L17 16.9a.4.4 0 0 0 .31-.22l6.32-12.82a.42.42 0 0 1 .74 0Z"></path><path d="M36.92 44.86a1 1 0 0 1-.47-.12L24 38.19l-12.45 6.55a1 1 0 0 1-1.45-1.05l2.37-13.87L2.4 20a1 1 0 0 1-.25-1 1 1 0 0 1 .85-.7l13.92-2L23.1 3.66a1 1 0 0 1 1.8 0l6.22 12.61L45 18.3a1 1 0 0 1 .81.68 1 1 0 0 1-.25 1l-10.03 9.84 2.37 13.87a1 1 0 0 1-.39 1 1 1 0 0 1-.59.17ZM24 36.06a1 1 0 0 1 .47.12L35.59 42l-2.13-12.36a1 1 0 0 1 .29-.89l9-8.77-12.44-1.8a1 1 0 0 1-.75-.55L24 6.36l-5.56 11.27a1 1 0 0 1-.75.55L5.25 20l9 8.77a1 1 0 0 1 .29.89L12.41 42l11.12-5.85a1 1 0 0 1 .47-.09Z"></path></svg>