<?xml version="1.0" encoding="UTF-8" standalone="no"?> <svg width="64" height="64" viewBox="0 0 64 64" fill="none" xmlns="http://www.w3.org/2000/svg">
<path d="M34.993 60.999C49.3524 60.999 60.993 49.3584 60.993 34.999C60.993 20.6396 49.3524 8.99902 34.993 8.99902C20.6336 8.99902 8.993 20.6396 8.993 34.999C8.993 49.3584 20.6336 60.999 34.993 60.999Z" fill="#4891D3"/>
<path d="M50.74 55.69C47.6132 58.0681 43.9882 59.7067 40.1372 60.4828C36.2862 61.2588 32.3095 61.1522 28.5057 60.1709C24.7018 59.1895 21.1698 57.359 18.175 54.8167C15.1801 52.2745 12.8002 49.0867 11.2141 45.4927C9.62803 41.8988 8.87695 37.9922 9.0173 34.0663C9.15765 30.1404 10.1858 26.2974 12.0245 22.8259C13.8631 19.3543 16.4646 16.3446 19.6333 14.0227C22.8021 11.7008 26.4558 10.1272 30.32 9.41998C25.6679 12.9581 22.3437 17.9604 20.8836 23.6197C19.4236 29.2791 19.9129 35.2653 22.2727 40.6123C24.6325 45.9594 28.7251 50.3554 33.89 53.091C39.0549 55.8266 44.9909 56.7422 50.74 55.69Z" fill="#2D72BC"/>
<path d="M44.2 32.924L41.795 24.665L48.214 18.437L55.443 18.944C58.7255 23.1219 60.6488 28.2053 60.954 33.5096C61.2592 38.814 59.9315 44.0844 57.1499 48.6112C54.3682 53.1379 50.2661 56.7035 45.3961 58.8278C40.5262 60.952 35.1222 61.5328 29.912 60.492L32.112 58.359L29.612 56.424L30.038 49.156L35.749 47.977L40.185 47.412L42.785 43.023L44.1 39.248L41.6 37.313L44.2 32.924Z" fill="#F9E109"/>
<path d="M10.455 26.405C12.2011 21.412 15.429 17.0707 19.7076 13.9607C23.9863 10.8506 29.1119 9.12005 34.4 9L38.488 12.91L34.993 20L35.484 30.233L29.331 33.017L24.942 30.417L23.62 34.2L26.12 36.135L23.193 41.467L17.53 39.484L12.43 41.937L9.74 41.207C8.5287 36.309 8.77724 31.1635 10.455 26.405Z" fill="#F9E109"/>
<path d="M14.585 51.1L19.606 48.684L20.506 52.176L23.951 54.442L23.214 58.179C19.8529 56.4814 16.9068 54.0645 14.585 51.1V51.1Z" fill="#FCBC04"/>
<path d="M50.74 55.69C47.8069 57.9214 44.4327 59.5034 40.8414 60.3309C37.2501 61.1585 33.5239 61.2127 29.91 60.49L32.11 58.36L29.61 56.42L29.96 50.53C32.8603 52.8134 36.2128 54.4543 39.7953 55.3439C43.3778 56.2335 47.1085 56.3515 50.74 55.69V55.69Z" fill="#FCBC04"/>
<path d="M21.53 21.52C19.2546 27.9721 19.6286 35.063 22.57 41.24L17.53 39.48L12.43 41.93L9.74 41.2C8.89437 37.7573 8.76187 34.1781 9.35066 30.6824C9.93945 27.1866 11.2371 23.8483 13.1637 20.8726C15.0904 17.8969 17.6054 15.3467 20.5541 13.3789C23.5027 11.4111 26.8228 10.0673 30.31 9.42999C26.2584 12.5092 23.2045 16.7145 21.53 21.52V21.52Z" fill="#FCBC04"/>
<path d="M3 6V27C3 27.7956 3.31607 28.5587 3.87868 29.1213C4.44129 29.6839 5.20435 30 6 30H15L21 36V30H28C28.7956 30 29.5587 29.6839 30.1213 29.1213C30.6839 28.5587 31 27.7956 31 27V6C31 5.20435 30.6839 4.44129 30.1213 3.87868C29.5587 3.31607 28.7956 3 28 3H6C5.20435 3 4.44129 3.31607 3.87868 3.87868C3.31607 4.44129 3 5.20435 3 6V6Z" fill="#84D2F4"/>
<path d="M34 28V49C34 49.7956 34.3161 50.5587 34.8787 51.1213C35.4413 51.6839 36.2044 52 37 52H41V56L47 52H58C58.7956 52 59.5587 51.6839 60.1213 51.1213C60.6839 50.5587 61 49.7956 61 49V28C61 27.2044 60.6839 26.4413 60.1213 25.8787C59.5587 25.3161 58.7956 25 58 25H37C36.2044 25 35.4413 25.3161 34.8787 25.8787C34.3161 26.4413 34 27.2044 34 28V28Z" fill="#F8664F"/>
<path d="M31 24V27C31 27.7956 30.6839 28.5587 30.1213 29.1213C29.5587 29.6839 28.7956 30 28 30H21V36L15 30H6C5.20435 30 4.44129 29.6839 3.87868 29.1213C3.31607 28.5587 3 27.7956 3 27V6C3 5.20435 3.31607 4.44129 3.87868 3.87868C4.44129 3.31607 5.20435 3 6 3H9V10C9 13.713 10.475 17.274 13.1005 19.8995C15.726 22.525 19.287 24 23 24H31Z" fill="#57B7EB"/>
<path d="M61 45V49C61 49.7956 60.6839 50.5587 60.1213 51.1213C59.5587 51.6839 58.7956 52 58 52H47L41 56V52H37C36.2044 52 35.4413 51.6839 34.8787 51.1213C34.3161 50.5587 34 49.7956 34 49V28C34 27.2044 34.3161 26.4413 34.8787 25.8787C35.4413 25.3161 36.2044 25 37 25H40V31C40 34.713 41.475 38.274 44.1005 40.8995C46.726 43.525 50.287 45 54 45H61Z" fill="#CC5144"/>
<path d="M17.9 6.55301C17.8076 6.39803 17.6765 6.2697 17.5197 6.18059C17.3628 6.09147 17.1854 6.04462 17.005 6.04462C16.8246 6.04462 16.6472 6.09147 16.4903 6.18059C16.3335 6.2697 16.2024 6.39803 16.11 6.55301L12.11 14.553C11.9915 14.7904 11.972 15.0651 12.0561 15.3168C12.1401 15.5685 12.3206 15.7765 12.558 15.895C12.7954 16.0136 13.0701 16.033 13.3218 15.9489C13.5735 15.8649 13.7815 15.6844 13.9 15.447L15.118 13H18.882L20.105 15.447C20.2236 15.6844 20.4315 15.8649 20.6832 15.9489C20.9349 16.033 21.2096 16.0136 21.447 15.895C21.6844 15.7765 21.8649 15.5685 21.9489 15.3168C22.033 15.0651 22.0136 14.7904 21.895 14.553L17.9 6.55301ZM16.118 11L17 9.23601L17.882 11H16.118Z" fill="#464A51"/>
<path d="M10 18C9.73478 18 9.48043 18.1054 9.29289 18.2929C9.10536 18.4804 9 18.7348 9 19V25C9 25.2652 9.10536 25.5196 9.29289 25.7071C9.48043 25.8946 9.73478 26 10 26H12C12.7956 26 13.5587 25.6839 14.1213 25.1213C14.6839 24.5587 15 23.7956 15 23C15 22.2044 14.6839 21.4413 14.1213 20.8787C13.5587 20.3161 12.7956 20 12 20H11V19C11 18.7348 10.8946 18.4804 10.7071 18.2929C10.5196 18.1054 10.2652 18 10 18ZM13 23C13 23.2652 12.8946 23.5196 12.7071 23.7071C12.5196 23.8946 12.2652 24 12 24H11V22H12C12.2652 22 12.5196 22.1054 12.7071 22.2929C12.8946 22.4804 13 22.7348 13 23Z" fill="#464A51"/>
<path d="M22.612 21.165C22.719 21.1651 22.8239 21.1939 22.9161 21.2482C23.0082 21.3025 23.0841 21.3805 23.136 21.474C23.2725 21.6969 23.4908 21.8575 23.7442 21.9214C23.9977 21.9853 24.2661 21.9475 24.4919 21.816C24.7178 21.6845 24.8832 21.4698 24.9528 21.2179C25.0223 20.9659 24.9904 20.6968 24.864 20.468C24.5767 19.971 24.1334 19.5828 23.6029 19.3635C23.0724 19.1442 22.4843 19.1061 21.93 19.2552C21.3756 19.4043 20.886 19.7322 20.537 20.1879C20.1881 20.6437 19.9993 21.202 20 21.776V23.389C19.9986 23.9633 20.1869 24.522 20.5357 24.9783C20.8844 25.4346 21.374 25.763 21.9285 25.9124C22.4831 26.0619 23.0714 26.0241 23.6022 25.8048C24.133 25.5856 24.5766 25.1972 24.864 24.7C24.9904 24.4713 25.0223 24.2021 24.9528 23.9502C24.8832 23.6982 24.7178 23.4835 24.4919 23.352C24.2661 23.2205 23.9977 23.1827 23.7442 23.2466C23.4908 23.3105 23.2725 23.4711 23.136 23.694C23.0841 23.7875 23.0082 23.8655 22.9161 23.9198C22.8239 23.9742 22.719 24.0029 22.612 24.003C22.5315 24.003 22.4517 23.9871 22.3773 23.9562C22.303 23.9254 22.2354 23.8801 22.1785 23.8231C22.1217 23.766 22.0766 23.6983 22.046 23.6238C22.0154 23.5493 21.9997 23.4696 22 23.389V21.776C22.0003 21.6139 22.0649 21.4585 22.1796 21.3439C22.2943 21.2294 22.4499 21.165 22.612 21.165V21.165Z" fill="#464A51"/>
<path d="M61 38C60.7348 38 60.4804 38.1054 60.2929 38.2929C60.1054 38.4804 60 38.7348 60 39V49C60 49.5304 59.7893 50.0391 59.4142 50.4142C59.0391 50.7893 58.5304 51 58 51H47C46.8025 51.0003 46.6095 51.0587 46.445 51.168L42 54.132V52C42 51.7348 41.8946 51.4804 41.7071 51.2929C41.5196 51.1054 41.2652 51 41 51H37C36.4696 51 35.9609 50.7893 35.5858 50.4142C35.2107 50.0391 35 49.5304 35 49V43C35 42.7348 34.8946 42.4804 34.7071 42.2929C34.5196 42.1054 34.2652 42 34 42C33.7348 42 33.4804 42.1054 33.2929 42.2929C33.1054 42.4804 33 42.7348 33 43V47.523L29.833 48.177C29.6176 48.2217 29.423 48.3362 29.2793 48.5027C29.1356 48.6692 29.0508 48.8784 29.038 49.098L28.611 56.365C28.6015 56.5275 28.6317 56.6898 28.6992 56.838C28.7666 56.9861 28.8692 57.1155 28.998 57.215L30.586 58.444L29.594 59.408C28.6245 59.1944 27.6682 58.9247 26.73 58.6C25.9174 58.3109 25.1206 57.9791 24.343 57.606L24.928 54.639C24.969 54.4429 24.9501 54.239 24.8737 54.0537C24.7974 53.8684 24.6672 53.7104 24.5 53.6L21.379 51.548L20.579 48.43C20.5423 48.2869 20.4744 48.1536 20.3801 48.0399C20.2858 47.9262 20.1674 47.8347 20.0335 47.7722C19.8997 47.7097 19.7536 47.6776 19.6058 47.6782C19.4581 47.6789 19.3123 47.7123 19.179 47.776L14.946 49.814C13.3444 47.6351 12.1004 45.2147 11.261 42.644L12.179 42.892C12.2643 42.9159 12.3524 42.928 12.441 42.928C12.591 42.9276 12.739 42.8934 12.874 42.828L17.599 40.556L22.87 42.4C23.0933 42.4783 23.3372 42.4748 23.5582 42.3902C23.7792 42.3056 23.963 42.1454 24.077 41.938L27 36.611C27.1146 36.4022 27.1508 36.1593 27.1022 35.9261C27.0537 35.6929 26.9234 35.4847 26.735 35.339L24.8 33.845L25.48 31.9L28.819 33.876C28.932 33.9429 29.0571 33.9869 29.1871 34.0055C29.3171 34.024 29.4495 34.0168 29.5767 33.9842C29.7039 33.9516 29.8235 33.8943 29.9285 33.8155C30.0336 33.7367 30.1221 33.638 30.189 33.525C30.2559 33.412 30.2999 33.2869 30.3185 33.1569C30.337 33.0269 30.3298 32.8945 30.2972 32.7673C30.2646 32.6401 30.2073 32.5205 30.1285 32.4155C30.0497 32.3104 29.951 32.2219 29.838 32.155L27.887 31H28C29.0609 31 30.0783 30.5786 30.8284 29.8284C31.5786 29.0783 32 28.0609 32 27V10.188C32.672 10.107 33.346 10.049 34.022 10.024L37.268 13.129L36.568 14.558C36.4511 14.7958 36.4333 15.0703 36.5187 15.3211C36.604 15.572 36.7854 15.7788 37.023 15.896C37.1602 15.9631 37.3112 15.9974 37.464 15.996C37.6512 15.9966 37.8348 15.9446 37.9939 15.8459C38.153 15.7473 38.2813 15.6059 38.364 15.438L39.394 13.351C39.4882 13.1603 39.5191 12.9444 39.4822 12.7349C39.4454 12.5254 39.3426 12.3331 39.189 12.186L36.989 10.086C39.1259 10.2541 41.2325 10.6957 43.257 11.4C43.457 11.47 43.65 11.546 43.846 11.623L44.059 11.706C44.1818 11.7551 44.3131 11.7794 44.4454 11.7774C44.5776 11.7754 44.7081 11.7472 44.8294 11.6944C44.9507 11.6416 45.0603 11.5653 45.1518 11.4699C45.2434 11.3745 45.3151 11.2619 45.3629 11.1385C45.4106 11.0152 45.4334 10.8836 45.43 10.7514C45.4265 10.6192 45.3969 10.489 45.3428 10.3683C45.2887 10.2476 45.2111 10.1389 45.1147 10.0484C45.0183 9.95786 44.9049 9.88738 44.781 9.841L44.581 9.761C44.362 9.675 44.145 9.59 43.922 9.513C40.0984 8.17976 36.0241 7.72251 32 8.175V6C32 4.93913 31.5786 3.92172 30.8284 3.17157C30.0783 2.42143 29.0609 2 28 2H6C4.93913 2 3.92172 2.42143 3.17157 3.17157C2.42143 3.92172 2 4.93913 2 6V12C2 12.2652 2.10536 12.5196 2.29289 12.7071C2.48043 12.8946 2.73478 13 3 13C3.26522 13 3.51957 12.8946 3.70711 12.7071C3.89464 12.5196 4 12.2652 4 12V6C4 5.46957 4.21071 4.96086 4.58579 4.58579C4.96086 4.21071 5.46957 4 6 4H28C28.5304 4 29.0391 4.21071 29.4142 4.58579C29.7893 4.96086 30 5.46957 30 6V27C30 27.5304 29.7893 28.0391 29.4142 28.4142C29.0391 28.7893 28.5304 29 28 29H21C20.7348 29 20.4804 29.1054 20.2929 29.2929C20.1054 29.4804 20 29.7348 20 30V33.586L15.707 29.293C15.5195 29.1054 15.2652 29.0001 15 29H6C5.46957 29 4.96086 28.7893 4.58579 28.4142C4.21071 28.0391 4 27.5304 4 27V16C4 15.7348 3.89464 15.4804 3.70711 15.2929C3.51957 15.1054 3.26522 15 3 15C2.73478 15 2.48043 15.1054 2.29289 15.2929C2.10536 15.4804 2 15.7348 2 16V27C2 28.0609 2.42143 29.0783 3.17157 29.8284C3.92172 30.5786 4.93913 31 6 31H8.3C7.40253 37.21 8.68189 43.5392 11.9209 48.913C15.1598 54.2869 20.1588 58.3742 26.069 60.481C28.9198 61.4855 31.9204 61.9991 34.943 62C35.9722 61.9997 37.0005 61.9406 38.023 61.823C38.1568 61.8124 38.2871 61.775 38.4061 61.713C38.5252 61.651 38.6305 61.5657 38.7159 61.4621C38.8012 61.3585 38.8649 61.2388 38.903 61.1101C38.9411 60.9814 38.9529 60.8464 38.9377 60.713C38.9226 60.5797 38.8807 60.4508 38.8146 60.3339C38.7486 60.2171 38.6597 60.1147 38.5532 60.033C38.4468 59.9513 38.325 59.8918 38.195 59.8581C38.0651 59.8244 37.9298 59.8173 37.797 59.837C35.8829 60.0546 33.95 60.0495 32.037 59.822L32.807 59.075C32.9099 58.9752 32.9901 58.8544 33.0422 58.7209C33.0943 58.5874 33.1171 58.4442 33.109 58.3011C33.101 58.158 33.0622 58.0183 32.9955 57.8915C32.9287 57.7646 32.8354 57.6536 32.722 57.566L30.639 55.954L30.989 49.978L33.056 49.552C33.1874 50.5056 33.6588 51.3796 34.3835 52.0132C35.1082 52.6468 36.0374 52.9972 37 53H40V56C40 56.181 40.0491 56.3587 40.1421 56.514C40.2352 56.6693 40.3686 56.7965 40.5282 56.8819C40.6879 56.9673 40.8677 57.0078 41.0485 56.999C41.2293 56.9902 41.4044 56.9325 41.555 56.832L47.3 53H52.329C49.3116 55.9073 45.612 58.0096 41.57 59.114C41.336 59.1776 41.1331 59.324 40.9991 59.526C40.865 59.728 40.8089 59.9719 40.8411 60.2122C40.8734 60.4525 40.9919 60.6728 41.1746 60.8323C41.3572 60.9918 41.5915 61.0794 41.834 61.079C41.9238 61.0786 42.0132 61.0669 42.1 61.044C47.1211 59.6722 51.639 56.8789 55.11 53H58C59.0609 53 60.0783 52.5786 60.8284 51.8284C61.5786 51.0783 62 50.0609 62 49V39C62 38.7348 61.8946 38.4804 61.7071 38.2929C61.5196 38.1054 61.2652 38 61 38ZM14.586 31L20.293 36.707C20.4805 36.8946 20.7348 36.9999 21 37C21.1315 37.0004 21.2617 36.9746 21.383 36.924C21.5657 36.8483 21.7218 36.72 21.8316 36.5556C21.9415 36.3911 22 36.1978 22 36V31H23.679L22.679 33.864C22.6097 34.0621 22.6045 34.2769 22.6641 34.4781C22.7237 34.6793 22.8451 34.8566 23.011 34.985L24.833 36.4L22.725 40.241L17.862 38.541C17.6118 38.4532 17.337 38.4683 17.098 38.583L12.336 40.874L10.636 40.413C9.93047 37.3257 9.8286 34.131 10.336 31.005L14.586 31ZM16.219 51.422L18.94 50.112L19.533 52.423C19.5948 52.6645 19.7446 52.8742 19.953 53.011L22.835 54.906L22.495 56.635C20.1311 55.2535 18.0108 53.4923 16.219 51.422V51.422Z" fill="#464A51"/>
<path d="M59.843 24.471C57.5534 19.0861 53.5839 14.5859 48.527 11.642C48.4132 11.5696 48.2859 11.521 48.1528 11.4992C48.0197 11.4773 47.8836 11.4825 47.7526 11.5146C47.6216 11.5467 47.4985 11.605 47.3906 11.6859C47.2827 11.7668 47.1923 11.8687 47.1248 11.9855C47.0573 12.1022 47.0141 12.2314 46.9978 12.3653C46.9816 12.4992 46.9925 12.635 47.0301 12.7645C47.0677 12.894 47.1311 13.0146 47.2165 13.119C47.3019 13.2234 47.4075 13.3095 47.527 13.372C49.5745 14.5654 51.4396 16.0473 53.065 17.772L48.282 17.436C48.1418 17.4262 48.0011 17.4461 47.8692 17.4943C47.7372 17.5426 47.6168 17.6181 47.516 17.716L41.1 23.947L41.151 24H37C36.7279 24.0001 36.4565 24.0279 36.19 24.083L36.005 20.21L36.8 18.6C36.9167 18.3613 36.9338 18.086 36.8475 17.8347C36.7613 17.5834 36.5787 17.3767 36.34 17.26C36.1013 17.1433 35.826 17.1262 35.5747 17.2125C35.3234 17.2987 35.1167 17.4813 35 17.72L34.1 19.557C34.0252 19.7091 33.9908 19.8778 34 20.047L34.243 25.12C33.8515 25.4908 33.5395 25.9373 33.3258 26.4324C33.1121 26.9274 33.0013 27.4608 33 28V39C33 39.2652 33.1054 39.5196 33.2929 39.7071C33.4804 39.8946 33.7348 40 34 40C34.2652 40 34.5196 39.8946 34.7071 39.7071C34.8946 39.5196 35 39.2652 35 39V28C35 27.4696 35.2107 26.9608 35.5858 26.5858C35.9609 26.2107 36.4696 26 37 26H58C58.5304 26 59.0391 26.2107 59.4142 26.5858C59.7893 26.9608 60 27.4696 60 28V35C60 35.2652 60.1054 35.5196 60.2929 35.7071C60.4804 35.8946 60.7348 36 61 36C61.2652 36 61.5196 35.8946 61.7071 35.7071C61.8946 35.5196 62 35.2652 62 35V28C61.9975 27.2708 61.795 26.5562 61.4147 25.934C61.0344 25.3118 60.4908 24.8058 59.843 24.471ZM48.586 19.471L54.886 19.912C55.8499 21.1919 56.6897 22.5608 57.394 24H43.913L48.586 19.471Z" fill="#464A51"/>
<path d="M37.5 38C37.5 38.2652 37.6054 38.5196 37.7929 38.7071C37.9804 38.8946 38.2348 39 38.5 39H40.5V46C40.5 46.181 40.5491 46.3587 40.6421 46.514C40.7352 46.6693 40.8686 46.7965 41.0282 46.8819C41.1879 46.9673 41.3677 47.0078 41.5485 46.999C41.7293 46.9902 41.9044 46.9325 42.055 46.832L45.055 44.832C45.2757 44.6848 45.4288 44.456 45.4808 44.1959C45.5327 43.9358 45.4792 43.6657 45.332 43.445C45.1848 43.2243 44.956 43.0712 44.6959 43.0192C44.4358 42.9673 44.1657 43.0208 43.945 43.168L42.5 44.132V38C42.5 37.7348 42.3946 37.4804 42.2071 37.2929C42.0196 37.1054 41.7652 37 41.5 37H38.5C38.2348 37 37.9804 37.1054 37.7929 37.2929C37.6054 37.4804 37.5 37.7348 37.5 38Z" fill="#464A51"/>
<path d="M41.5 36C41.6977 35.9999 41.891 35.9413 42.0555 35.8314C42.2199 35.7215 42.348 35.5653 42.4237 35.3826C42.4993 35.1999 42.5191 34.9989 42.4806 34.805C42.442 34.611 42.3468 34.4328 42.207 34.293L40.207 32.293C40.0184 32.1108 39.7658 32.01 39.5036 32.0123C39.2414 32.0146 38.9906 32.1198 38.8052 32.3052C38.6198 32.4906 38.5146 32.7414 38.5123 33.0036C38.51 33.2658 38.6108 33.5184 38.793 33.707L40.793 35.707C40.9805 35.8945 41.2348 35.9999 41.5 36V36Z" fill="#464A51"/>
<path d="M45.5 38C45.5 38.2652 45.6054 38.5196 45.7929 38.7071C45.9804 38.8946 46.2348 39 46.5 39H55.5C55.7652 39 56.0196 38.8946 56.2071 38.7071C56.3946 38.5196 56.5 38.2652 56.5 38C56.5 37.7348 56.3946 37.4804 56.2071 37.2929C56.0196 37.1054 55.7652 37 55.5 37H54.5V33C54.5 32.7348 54.3946 32.4804 54.2071 32.2929C54.0196 32.1054 53.7652 32 53.5 32H51.133L51.383 30H55.5C55.7652 30 56.0196 29.8946 56.2071 29.7071C56.3946 29.5196 56.5 29.2652 56.5 29C56.5 28.7348 56.3946 28.4804 56.2071 28.2929C56.0196 28.1054 55.7652 28 55.5 28H46.5C46.2348 28 45.9804 28.1054 45.7929 28.2929C45.6054 28.4804 45.5 28.7348 45.5 29C45.5 29.2652 45.6054 29.5196 45.7929 29.7071C45.9804 29.8946 46.2348 30 46.5 30H49.367L49.117 32H46.5C46.2348 32 45.9804 32.1054 45.7929 32.2929C45.6054 32.4804 45.5 32.7348 45.5 33C45.5 33.2652 45.6054 33.5196 45.7929 33.7071C45.9804 33.8946 46.2348 34 46.5 34H48.867L48.508 36.876C48.508 36.9175 48.511 36.9589 48.517 37H46.5C46.2348 37 45.9804 37.1054 45.7929 37.2929C45.6054 37.4804 45.5 37.7348 45.5 38ZM50.883 34H52.5V37H50.508L50.883 34Z" fill="#464A51"/>
<path d="M55.5 49C55.7652 49 56.0196 48.8946 56.2071 48.7071C56.3946 48.5196 56.5 48.2652 56.5 48V42C56.5 41.7348 56.3946 41.4804 56.2071 41.2929C56.0196 41.1054 55.7652 41 55.5 41H47.5C47.2348 41 46.9804 41.1054 46.7929 41.2929C46.6054 41.4804 46.5 41.7348 46.5 42V48C46.5 48.2652 46.6054 48.5196 46.7929 48.7071C46.9804 48.8946 47.2348 49 47.5 49C47.7652 49 48.0196 48.8946 48.2071 48.7071C48.3946 48.5196 48.5 48.2652 48.5 48V47H54.5V48C54.5 48.2652 54.6054 48.5196 54.7929 48.7071C54.9804 48.8946 55.2348 49 55.5 49ZM48.5 45V43H54.5V45H48.5Z" fill="#464A51"/>
</svg>
